<svg width="126" height="34" viewBox="0 0 126 34" fill="none" xmlns="http://www.w3.org/2000/svg">
<g clip-path="url(#clip0_705_1784)">
<path fill-rule="evenodd" clip-rule="evenodd" d="M96.9451 8.75C98.7183 8.75 100.404 9.09863 102.003 9.79459C103.602 10.5106 104.74 11.5847 105.419 13.0167C105.763 13.7327 105.954 14.5157 105.993 15.3654L106 15.6872L105.825 18.1487L94.0378 18.0889C94.2703 18.994 94.8348 19.7054 95.731 20.2224C96.6272 20.7398 97.8509 20.9981 99.4011 20.9981C100.848 20.9981 102.502 20.6212 104.363 19.8677L104.764 19.7004H105.549L105.273 23.4894C104.672 23.9569 103.602 24.3673 102.061 24.7205C100.52 25.0734 99.0257 25.25 97.5771 25.25C96.1286 25.25 94.9004 25.1801 93.8926 25.0409C92.8845 24.9017 91.8866 24.6509 90.8983 24.2875C89.9103 23.9247 89.0647 23.4622 88.362 22.9005C87.6593 22.3385 87.09 21.6074 86.6541 20.7073C86.2181 19.8074 86 18.7284 86 17.4701C86 16.2121 86.2229 15.0556 86.6688 14.0012C87.1143 12.9474 87.691 12.0968 88.3985 11.4504C90.3651 9.65014 93.2142 8.75 96.9451 8.75ZM119.429 3.6131L119.42 4.16321L119.196 9.41334H124.744C125.191 9.41334 125.61 9.47564 126 9.60025L125.244 12.9139C124.949 13.0173 124.435 13.0693 123.703 13.0693H118.925L118.782 17.5958C118.782 18.5919 119.008 19.2868 119.46 19.6805C119.911 20.0748 120.572 20.272 121.442 20.272C122.312 20.272 123.546 20.0228 125.144 19.5251C125.458 19.4214 125.638 19.3642 125.686 19.3539C125.715 19.6548 125.729 20.3706 125.729 21.5009C125.729 22.6313 125.705 23.4662 125.658 24.0053C124.735 24.3993 123.591 24.7054 122.227 24.9231C120.862 25.1408 119.583 25.25 118.39 25.25C117.197 25.25 116.072 25.0994 115.017 24.7985C111.66 23.8653 109.981 21.6563 109.981 18.1715V17.8138C110.01 17.5133 110.038 16.6811 110.067 15.317C110.096 13.9535 110.119 13.2042 110.138 13.0693H108.683C107.856 13.0693 107.295 13.0224 107 12.9293L107.884 9.36679H110.48C110.613 8.27787 110.716 7.04895 110.787 5.68002C110.859 4.31109 110.978 2.94113 111.016 2.58855C114.548 2.3989 117.322 3.29646 119.429 3.6131ZM69.054 2.5625L68.9474 4.28281C68.9474 4.71908 68.9063 5.76908 68.8239 7.43248C68.7422 9.09621 68.696 10.0648 68.6864 10.3387C69.4886 9.76049 70.429 9.29408 71.5073 8.93884C72.5849 8.58393 73.646 8.40614 74.6901 8.40614C77.8706 8.40614 80.3698 9.43103 82.1872 11.4798C83.3956 12.8492 84 14.5739 84 16.6531C84 17.8096 83.7268 18.9205 83.1809 19.9853C82.6345 21.0507 81.9092 21.9661 81.0055 22.7318C80.1015 23.4975 79.0334 24.1089 77.8004 24.5653C76.568 25.0217 75.207 25.25 73.7184 25.25C72.2294 25.25 70.7647 24.9507 69.3246 24.3523C67.9947 23.8 66.9122 23.0315 66.0768 22.0467L65.8732 21.796V21.7354C65.8342 21.8569 65.5735 22.3133 65.0901 23.1048C64.6069 23.896 64.3335 24.3065 64.2709 24.3369C64.2081 24.3674 63.6739 24.4692 62.6684 24.6413C61.6629 24.8137 61.0246 24.9001 60.754 24.9001C60.5285 24.9001 60.3166 24.8294 60.1177 24.6886L60 24.5958L60.7684 5.37835L60.8667 4.58415C64.3769 3.24487 66.0503 2.66596 69.054 2.5625ZM70.6537 12.8469H70.1907C68.8148 12.8469 67.6898 13.9721 67.6053 15.3931L67.6002 15.565V17.5193C67.6002 18.9626 68.6723 20.1433 70.0268 20.232L70.1907 20.2374H70.6537C72.0292 20.2374 73.1546 19.1121 73.2391 17.6912L73.2442 17.5193V15.565C73.2442 14.064 72.0842 12.8469 70.6537 12.8469ZM97.1412 12.8079C96.3509 12.8079 95.7141 13.0492 95.2295 13.5317C94.7991 13.9604 94.5137 14.4853 94.3741 15.1066L94.3285 15.3442L99.5754 15.374C99.5659 14.4391 99.3551 13.7776 98.9435 13.3899C98.5315 13.0019 97.9309 12.8079 97.1412 12.8079Z" fill="#4C9EEA"/>
<path fill-rule="evenodd" clip-rule="evenodd" d="M17.3617 7.89784C17.3617 9.2072 16.36 10.2683 15.1246 10.2683H14.4547C13.2192 10.2683 12.2175 9.2072 12.2175 7.89784V6.18486C12.2175 4.87578 13.2192 3.81437 14.4547 3.81437H15.1246C16.36 3.81437 17.3617 4.87578 17.3617 6.18486V7.89784ZM17.3617 17.5343C17.3617 18.8437 16.36 19.9051 15.1246 19.9051H14.4547C13.2192 19.9051 12.2175 18.8437 12.2175 17.5343V15.8216C12.2175 14.5123 13.2192 13.4509 14.4547 13.4509H15.1246C16.36 13.4509 17.3617 14.5123 17.3617 15.8216V17.5343ZM28.9973 17.0147C29.1135 13.5961 25.5071 11.4755 24.4212 10.9004C26.7481 9.955 27.4074 7.77726 27.4461 7.12003C27.4848 6.46252 28.2215 2.47671 21.7067 1.20273C15.1919 -0.0709676 11.0812 0.627584 7.66873 1.40822C4.25626 2.18913 2.4337 4.85993 2.58863 7.40761C2.74383 9.955 5.65224 11.27 5.65224 11.27C3.44181 11.8454 0.766065 14.3518 0.378205 15.4613C-0.00938696 16.5709 -0.901303 20.1457 2.85094 22.652C6.60345 25.1587 12.167 25.7749 19.8842 24.8298C27.601 23.8847 28.8808 20.4333 28.9973 17.0147Z" fill="#4C9EEA"/>
<path fill-rule="evenodd" clip-rule="evenodd" d="M32.0292 0.576081C37.1611 0.000720084 40.3497 2.87752 40.3497 2.87752L47 11.9237L18 33.5L38.2173 13.9375C38.2173 13.9375 38.1973 13.9101 38.1594 13.8584L37.9175 13.5286C37.3725 12.7856 36.1609 11.1344 34.9222 9.45029L34.5504 8.94495L34.1808 8.44289C32.7732 6.53131 31.499 4.80778 31.3307 4.60361C30.936 4.12423 29.5696 2.36606 29.5089 2.14228C29.4482 1.91849 28.9016 0.991556 32.0292 0.576081ZM47.9134 12.875L56.7836 23.0011C56.7836 23.0011 56.8073 23.035 56.8391 23.0941L56.88 23.1767C57.0512 23.5513 57.262 24.4308 55.7724 24.8729C53.8484 25.4439 50.2289 25.4123 47.9134 24.4605C45.5979 23.5087 42.8913 19.8924 42.8913 19.8924L41 17.6717L47.9134 12.875ZM50.8349 0.500802C50.8719 0.500904 50.9122 0.501016 50.9557 0.501137L51.2526 0.501957C53.0774 0.506994 57.9447 0.520272 59.9048 0.524092L60.3628 0.524887C60.4047 0.524946 60.4434 0.524995 60.4788 0.525033L60.7029 0.525078L60.733 0.524951C61.0312 0.52227 61.6589 0.382851 61.9414 0.793066C62.224 1.20328 61.3922 2.07412 61.3922 2.07412L48.9713 10.8125L46 7.13075L52.2104 1.51161L50.5467 0.5L50.8349 0.500802Z" fill="#2F5890"/>
</g>
<defs>
<clipPath id="clip0_705_1784">
<rect width="126" height="34" fill="white"/>
</clipPath>
</defs>
</svg>
